<svg xmlns="http://www.w3.org/2000/svg" width="25" height="24" fill="none" viewBox="0 0 25 24" id="google-news">
  <rect width="24" height="24" x=".777" fill="url(#a)" rx="8"></rect>
  <path fill="#fff" fill-rule="evenodd" d="M18.1612 5.36861V8.38147L14.635 7.59786C14.4945 7.56664 14.3493 7.5775 14.2169 7.627L13.8189 6.83094C13.5529 6.29893 12.9137 6.07263 12.3721 6.31876L7.84003 8.37883V5.36861C7.84003 5.16504 8.00506 5 8.20864 5H17.7926C17.9962 5 18.1612 5.16504 18.1612 5.36861ZM13.7327 8.30716L13.1595 7.16067C13.0708 6.98333 12.8578 6.9079 12.6773 6.98995L5.21617 10.3813C5.03499 10.4637 4.95189 10.675 5.02844 10.8587L6.36557 14.0678V11.2665C6.36557 10.6557 6.86067 10.1606 7.47141 10.1606H13.4856L13.7327 8.30716ZM20.7112 9.70333L14.4751 8.31753L14.2294 10.1606H18.5299C19.1406 10.1606 19.6357 10.6557 19.6357 11.2665V14.2154L20.9809 10.1797C21.0501 9.97237 20.9246 9.75074 20.7112 9.70333ZM18.5299 10.8978H7.47141C7.26783 10.8978 7.1028 11.0629 7.1028 11.2665V18.6387C7.1028 18.8423 7.26783 19.0074 7.47141 19.0074H18.5299C18.7334 19.0074 18.8985 18.8423 18.8985 18.6387V11.2665C18.8985 11.0629 18.7334 10.8978 18.5299 10.8978ZM10.4203 13.6624C9.7078 13.6624 9.13018 14.2401 9.13018 14.9526C9.13018 15.6651 9.7078 16.2428 10.4203 16.2428C10.935 16.2428 11.3793 15.9414 11.5863 15.5055H10.4203V14.3997H12.8163V14.9526C12.8163 16.2759 11.7436 17.3486 10.4203 17.3486C9.09706 17.3486 8.02434 16.2759 8.02434 14.9526C8.02434 13.6293 9.09706 12.5566 10.4203 12.5566C10.8872 12.5566 11.3244 12.6907 11.6937 12.9226L11.1053 13.8591C10.9072 13.7345 10.673 13.6624 10.4203 13.6624ZM13.7379 13.6624H17.0554V12.5566H13.7379V13.6624ZM17.7926 15.5055H13.7379V14.3997H17.7926V15.5055ZM13.7379 17.3486H17.0554V16.2428H13.7379V17.3486Z" clip-rule="evenodd"></path>
  <defs>
    <linearGradient id="a" x1=".777" x2="24.777" y1="12" y2="12" gradientUnits="userSpaceOnUse">
      <stop stop-color="#ED6D6B"></stop>
      <stop offset="1" stop-color="#F0B076"></stop>
    </linearGradient>
  </defs>
</svg>
